<svg width="249" height="225" viewBox="0 0 249 225" fill="none" xmlns="http://www.w3.org/2000/svg">
<path d="M161.552 117.307C152.606 129.317 131.871 158.422 131.871 159.215C131.871 160.757 173.845 217.328 176.744 219.77C182.55 224.662 187.213 225.108 219.239 224.822L249 224.557L221.175 191.057C206.971 171.532 173.371 127.057 169.371 123.057C165.371 119.057 161.552 117.307 161.552 117.307Z" fill="black"/>
<path fill-rule="evenodd" clip-rule="evenodd" d="M0 1.29C0 4.253 3.166 14.394 5.576 19.15C8.816 25.545 15.828 33.123 23 37.982C26.025 40.031 37.725 46.558 49 52.486C74.172 65.72 77.255 67.456 83.297 71.794C88.056 75.212 89.135 77.213 85.036 75.019C83.861 74.391 75.16 71.031 65.7 67.553C56.24 64.076 40.004 58.012 29.62 54.079C19.235 50.146 10.522 47.144 10.257 47.409C9.51 48.157 12.696 56.806 15.451 61.507C18.958 67.49 28.161 75.556 35.899 79.427C39.529 81.243 48.8 85.095 56.5 87.986C73.401 94.332 84.445 99.292 85.51 101.017C86.112 101.99 85.629 102.124 83.474 101.583C81.921 101.193 69.856 98.859 56.664 96.396C43.471 93.933 32.3 91.685 31.839 91.4C27.67 88.824 37.758 103.856 43.112 108.199C49.389 113.291 54.094 115.415 66 118.527C84.076 123.254 92.184 128.447 96.881 138.306C99.799 144.432 102.182 155.811 99.655 151.554C96.507 146.251 89.561 140.076 83.87 137.522C77.941 134.861 77.722 134.837 76.034 136.642C75.079 137.664 64.711 151.775 52.993 168C41.275 184.225 29.858 199.975 27.622 203C18.338 215.558 7 223.263 7 224.105C7 225.454 21.636 225.148 29.28 223.529C41.801 220.875 46.06 217.499 72.833 189L78 183.5C75.2071 191.286 69.6848 198.442 49.5 218.5C51.667 219.222 77.474 212.793 82.246 210.375C84.96 209 89.172 206.039 91.606 203.796C96.946 198.873 99.528 195.312 188.386 70.3C206.221 45.209 202.95 47.707 224 43.098C242.971 38.943 248.349 37.454 248.752 36.245C249.134 35.097 239.332 26.74 234.937 24.468C231.629 22.757 225.417 21.316 215.255 19.903C209.025 19.036 206.909 18.247 203.573 15.547C196.045 9.452 194.384 9 179.518 9C165.01 9 161.6 9.78 155.391 14.515C151.866 17.204 126 52.298 126 54.392C126 55.106 126.969 56.547 128.153 57.595C131.912 60.922 137.964 71.142 139.896 77.428C142.323 85.325 143.223 94.246 142.223 100.5L141.423 105.5L139.677 98.656C136.162 84.881 126.356 69.496 116.113 61.684C113.448 59.651 107.369 55.745 102.605 53.004C94.271 48.209 1.353 0 0.444 0C0.2 0 0 0.580001 0 1.29ZM176.923 30.077C181.898 35.051 189.083 33.607 192.531 26.939L194.051 24H184.026C172.667 24 171.686 24.84 176.923 30.077Z" fill="black"/>
</svg>
